<?xml version="1.0" encoding="UTF-8"?><svg id="Layer_2" xmlns="http://www.w3.org/2000/svg" viewBox="0 0 637.25 67.25"><defs><style>.cls-1{fill:#fff;}</style></defs><g id="Layer_1-2"><g><path class="cls-1" d="M0,54.03V1.48H26c6.47,0,11.24,.94,14.3,2.83,3.98,2.44,5.98,6,5.98,10.68s-2.27,8.23-6.81,11.15c2.68,.72,4.81,2.15,6.39,4.27,1.58,2.12,2.37,4.76,2.37,7.89,0,2.25-.36,4.29-1.09,6.12-.72,1.84-1.74,3.37-3.04,4.6-.89,.89-2.2,1.76-3.91,2.61-1.71,.84-3.41,1.45-5.09,1.83-1.68,.37-4.54,.56-8.6,.56H0ZM16.66,13.33v9.27h6.52c2.66,0,4.51-.43,5.56-1.29,1.05-.86,1.58-1.96,1.58-3.31,0-1.04-.31-1.95-.92-2.73-.62-.78-1.43-1.32-2.44-1.61-.75-.22-2.34-.33-4.78-.33h-5.5Zm0,18.72v9.96h7.03c3.36,0,5.59-.45,6.7-1.34,1.11-.89,1.67-2.14,1.67-3.73s-.54-2.78-1.63-3.62c-1.09-.84-3.33-1.27-6.74-1.27h-7.03Z"/><path class="cls-1" d="M67.4,27.52h-14.7c.19-2.44,.68-4.37,1.45-5.81,.77-1.44,1.93-2.65,3.48-3.64,2.05-1.3,4.47-2.23,7.24-2.77,2.78-.54,5.65-.82,8.62-.82s5.4,.19,7.66,.56c2.26,.37,4.17,.98,5.74,1.83,1.57,.84,2.77,1.79,3.62,2.82,.84,1.04,1.47,2.37,1.88,3.98,.26,.99,.4,2.95,.4,5.87v19.66c0,1.74,.66,3.09,1.99,4.06v.76h-15.64l-.76-4.13c-1.93,1.79-4.02,3.11-6.27,3.96-2.24,.86-4.8,1.29-7.68,1.29-4.78,0-8.31-1.14-10.57-3.4-2.27-2.27-3.4-4.97-3.4-8.11,0-1.81,.4-3.54,1.21-5.2,.81-1.65,1.91-2.97,3.31-3.95s3.37-1.75,5.92-2.32c2.55-.57,6.23-1.13,11.06-1.68,2.51-.29,4.1-.63,4.78-1.01,.97-.56,1.45-1.39,1.45-2.5,0-.97-.39-1.75-1.18-2.35-.79-.6-2.18-.9-4.18-.9s-3.3,.32-4.09,.96c-.8,.64-1.24,1.59-1.34,2.84Zm10.61,9.53c-.58,.29-1.33,.58-2.26,.87-.93,.29-2.66,.7-5.2,1.23-1.74,.36-2.9,.87-3.5,1.52-.59,.65-.89,1.45-.89,2.39,0,1.01,.38,1.84,1.14,2.46,.76,.63,1.95,.94,3.57,.94,1.21,0,2.36-.25,3.46-.74,1.1-.49,1.97-1.17,2.63-2.01,.46-.63,.76-1.42,.9-2.39,.1-.63,.15-2.05,.15-4.27Z"/><path class="cls-1" d="M96.89,54.03V15.83h13.98v5.94c1.83-2.49,3.77-4.27,5.81-5.36,2.04-1.09,4.44-1.63,7.19-1.63,4.68,0,8.31,1.3,10.88,3.89,2.57,2.6,3.86,6.45,3.86,11.57v23.79h-15.28v-21.04c0-2.22-.48-3.83-1.43-4.83-.95-1-2.3-1.5-4.04-1.5s-3.1,.59-4.16,1.76c-1.06,1.17-1.59,3.05-1.59,5.63v19.99h-15.21Z"/><path class="cls-1" d="M142.09,54.03V1.41h15.21V27.52l9.67-11.59h17.78l-14.16,14.67,15.97,23.43h-18.29l-8.15-13.58-2.83,2.86v10.72h-15.21Z"/><path class="cls-1" d="M228.37,14.81c6.9,0,12.27,1.85,16.08,5.54,3.82,3.69,5.72,8.62,5.72,14.78,0,3.89-.81,7.33-2.44,10.32-1.63,2.99-4.17,5.38-7.6,7.15-3.44,1.77-7.35,2.66-11.72,2.66-3.6,0-7.08-.66-10.45-1.99-3.37-1.33-6.08-3.54-8.15-6.63-2.06-3.09-3.1-6.89-3.1-11.41,0-6.18,1.91-11.13,5.74-14.85,3.83-3.72,9.13-5.58,15.92-5.58Zm.22,30.13c1.11,0,2.16-.31,3.15-.92,.99-.62,1.77-1.7,2.34-3.24,.57-1.55,.85-3.51,.85-5.9,0-3.48-.71-6.12-2.14-7.93-1.04-1.35-2.46-2.03-4.27-2.03s-3.45,.79-4.69,2.37c-1.24,1.58-1.86,4.22-1.86,7.91,0,2.37,.29,4.27,.89,5.7,.59,1.44,1.41,2.47,2.46,3.1,1.05,.63,2.14,.94,3.28,.94Z"/><path class="cls-1" d="M276.55,.11V9.67c-.65-.05-1.17-.07-1.56-.07-1.98,0-3.3,.34-3.96,1.03-.66,.69-1,2.02-1,4v1.3h6.52v8.66h-6.52v29.44h-15.03V24.59h-4.96V15.94h5.07c-.05-3.65,.28-6.54,.98-8.69,.53-1.67,1.42-3.05,2.68-4.16,1.25-1.11,2.62-1.86,4.09-2.25,2.17-.56,5.37-.83,9.6-.83,.85,0,2.21,.04,4.09,.11Z"/><path class="cls-1" d="M299.49,54.03V1.48h40.85V14.45h-23.87v8.44h19.08v12.6h-19.08v18.54h-16.99Z"/><path class="cls-1" d="M363.59,14.81c6.9,0,12.27,1.85,16.08,5.54,3.82,3.69,5.72,8.62,5.72,14.78,0,3.89-.81,7.33-2.44,10.32-1.63,2.99-4.17,5.38-7.6,7.15-3.44,1.77-7.35,2.66-11.72,2.66-3.6,0-7.08-.66-10.45-1.99-3.37-1.33-6.08-3.54-8.15-6.63-2.06-3.09-3.1-6.89-3.1-11.41,0-6.18,1.91-11.13,5.74-14.85,3.83-3.72,9.13-5.58,15.92-5.58Zm.22,30.13c1.11,0,2.16-.31,3.15-.92s1.77-1.7,2.34-3.24c.57-1.55,.85-3.51,.85-5.9,0-3.48-.71-6.12-2.14-7.93-1.04-1.35-2.46-2.03-4.27-2.03s-3.45,.79-4.69,2.37c-1.24,1.58-1.86,4.22-1.86,7.91,0,2.37,.29,4.27,.89,5.7,.59,1.44,1.41,2.47,2.46,3.1,1.05,.63,2.14,.94,3.28,.94Z"/><path class="cls-1" d="M388.12,54.03V15.94h13.83v7.64c1.23-3.07,2.81-5.29,4.74-6.68,1.93-1.39,4.35-2.08,7.24-2.08,.63,0,1.23,.05,1.81,.15v15.14c-1.5-.24-2.64-.36-3.44-.36-2.99,0-5.24,.79-6.74,2.37-1.5,1.58-2.24,4.2-2.24,7.84v14.09h-15.21Z"/><path class="cls-1" d="M424.16,15.64V3.91h14.96V15.64h7.28v8.69h-7.46v15.03c0,1.3,.32,2.26,.98,2.86,.65,.6,1.79,.9,3.4,.9h2.93v10.72c-2.66,.31-5.48,.47-8.47,.47-4.3,0-7.33-.42-9.09-1.25-1.76-.83-3-2.01-3.71-3.53-.71-1.52-1.07-4.29-1.07-8.29V24.34h-5.39V15.64h5.65Z"/><path class="cls-1" d="M471.89,39.37l6.59-23.43h14.59l-12.53,36.54c-1.55,4.51-2.9,7.67-4.06,9.45-1.16,1.79-2.58,3.05-4.27,3.8-2.29,1.01-5.46,1.52-9.49,1.52-1.93,0-4.49-.11-7.68-.32v-10.65c.87,.1,1.72,.14,2.57,.14,2.27,0,3.77-.28,4.49-.83,.72-.56,1.09-1.29,1.09-2.21,0-.48-.13-1.12-.4-1.92l-12.89-35.53h15.21l6.77,23.43Z"/><path class="cls-1" d="M502.31,15.64V3.91h14.96V15.64h7.28v8.69h-7.46v15.03c0,1.3,.32,2.26,.98,2.86,.65,.6,1.79,.9,3.4,.9h2.93v10.72c-2.66,.31-5.48,.47-8.47,.47-4.3,0-7.33-.42-9.09-1.25-1.76-.83-3-2.01-3.71-3.53-.71-1.52-1.07-4.29-1.07-8.29V24.34h-5.39V15.64h5.65Z"/><path class="cls-1" d="M527.23,15.94h14.85l5.83,23.5,6.01-23.5h12.89l6.01,23.43,5.9-23.43h14.34l-12.2,38.1h-14.85l-5.9-22.42-5.39,22.42h-14.88l-12.6-38.1Z"/><path class="cls-1" d="M615.45,14.81c6.9,0,12.27,1.85,16.08,5.54,3.82,3.69,5.72,8.62,5.72,14.78,0,3.89-.81,7.33-2.44,10.32-1.63,2.99-4.17,5.38-7.6,7.15-3.44,1.77-7.35,2.66-11.72,2.66-3.6,0-7.08-.66-10.45-1.99-3.37-1.33-6.08-3.54-8.15-6.63-2.06-3.09-3.1-6.89-3.1-11.41,0-6.18,1.91-11.13,5.74-14.85,3.83-3.72,9.13-5.58,15.92-5.58Zm.22,30.13c1.11,0,2.16-.31,3.15-.92,.99-.62,1.77-1.7,2.34-3.24,.57-1.55,.85-3.51,.85-5.9,0-3.48-.71-6.12-2.14-7.93-1.04-1.35-2.46-2.03-4.27-2.03s-3.45,.79-4.69,2.37c-1.24,1.58-1.86,4.22-1.86,7.91,0,2.37,.29,4.27,.89,5.7,.59,1.44,1.41,2.47,2.46,3.1,1.05,.63,2.14,.94,3.28,.94Z"/></g></g></svg>