<?xml version="1.0" encoding="UTF-8"?><svg id="Layer_2" xmlns="http://www.w3.org/2000/svg" viewBox="0 0 562.85 458.19"><defs><style>.cls-1{fill:#fff;}</style></defs><g id="Layer_1-2"><g><path class="cls-1" d="M180.99,443.92c-.81-8.04,7.81-14.17,13.77-14.18,6.07,0,14.18,6.05,14.03,14.06-.16,8.68-6.63,14.4-13.89,14.39-7.58-.02-14.3-5.85-13.91-14.26Zm24.77,.11c-.44-6.36-4.09-11.3-11.04-11.27-5.92,.02-10.53,4.43-10.8,11.17-.26,6.61,4.63,11.67,11.01,11.61,5.99-.05,10.8-5.17,10.83-11.51Z"/><path class="cls-1" d="M197.72,445.45c1.19,2.25,2.29,4.33,3.43,6.48-1.46,.93-2.35,.61-3.08-.67-.89-1.56-1.86-3.09-2.77-4.64-.71-1.2-1.6-1.74-2.72-1.08-1.62,2.14,1.09,5.43-2.23,7.08-.85-2.74-1.01-12.32-.31-17.04,1.92,0,3.93-.1,5.93,.03,1.92,.12,3.85,.35,4.61,2.66,.81,2.44,.24,4.86-1.67,6.49-.33,.28-.75,.44-1.2,.7Zm-5.49-2.2c1.49,0,2.56,.04,3.62-.01,1.46-.07,2.56-.65,2.65-2.3,.1-1.64-.85-2.42-2.36-2.52-1.26-.09-2.53-.02-3.91-.02v4.85Z"/><g><path class="cls-1" d="M214.71,282.72c-1.86,0-19.92-.3-32.13-.28-32.01,.06-85.35,.18-85.35,.18,0,0,226.71-261.17,226.71-268.73,0-2.29-1.94-4.23-4.23-4.23h-62.57C256.01,9.6-.17,280.46,0,290.6S0,320.2,0,334.99c0,2.29,1.94,4.23,4.23,4.23H195.37c3.46,0,15.87,.32,19.33,.32v-56.82Z"/><path class="cls-1" d="M336.9,426s148.13-130.19,171.51-157.4c22.93-26.68,41.22-57.65,49.46-92.08,8.16-34.06,6.84-70.83-8.01-102.91-14.96-32.31-43.35-57.3-77.34-67.92-33.23-10.39-69.63-6.44-99.89,10.76-7.5,4.26-14.56,9.32-21.06,14.99-1.86,1.62-3.57,3.49-5.33,5.28l-22.4,24.32v.12l-99.85,111.97V453.72c0,2.29,1.94,4.23,4.23,4.23h243.91c13.62,0,27.36,.53,40.97,0,.21,0,.42,0,.63,0,.03,0,.06,0,.09,0h38.96c2.91,0,8.46-3.51,8.46-10.28v-100.83c0-2.29-80.64,88.92-153.7,88.92s-70.67-9.74-70.67-9.74Zm-51.35-39.29V198.56c17.21,8.27,41.62,4.09,51.41-13.26,5.38-9.54,5.42-22.18,2.12-32.42-1.88-5.85-5.16-11.34-8.74-16.3-3.43-4.74-8.11-9.68-9.77-15.41-1.57-5.38-.55-12.15,.85-17.49,1.37-5.23,3.97-10.06,7.59-14.09,7.98-8.89,19.87-12.69,31.34-14.51,11.69-1.86,24.95-2.39,35.76,3.2,10.3,5.33,18.33,14.79,23.75,24.87,12.29,22.85,12.98,51.25,8.85,76.33-4.23,25.72-14.68,50.46-27.65,72.94-19.39,33.6-45.82,62.74-72.78,90.42-14.24,14.62-28.49,29.24-42.73,43.87Z"/></g></g></g></svg>